<svg class="svg-icon" style="width: current; height: current;vertical-align: middle;fill: currentColor;overflow: hidden;" viewBox="0 0 1024 1024" version="1.1" xmlns="http://www.w3.org/2000/svg"><path d="M841.268907 707.116942a0.141084 0.141084 0 0 0 0.053475 0h1.866525a17.989404 17.989404 0 0 0 16.90112-11.832889l161.512106-443.75552a17.991111 17.991111 0 0 0-2.168035-16.469902 17.989973 17.989973 0 0 0-14.733654-7.668053H190.144853L150.033067 118.413653c-0.037547-0.102969-0.088178-0.198542-0.128-0.301511a17.249849 17.249849 0 0 0-0.436907-1.01888c-0.102969-0.225849-0.208213-0.449422-0.320853-0.669582a15.977244 15.977244 0 0 0-0.459094-0.833422c-0.14848-0.256-0.298667-0.509724-0.459093-0.75776a18.901333 18.901333 0 0 0-0.444302-0.642276 18.422898 18.422898 0 0 0-0.607005-0.810098 16.683236 16.683236 0 0 0-0.434062-0.514275 20.037404 20.037404 0 0 0-0.722489-0.795307c-0.155876-0.158151-0.319147-0.308338-0.479573-0.461938a19.093618 19.093618 0 0 0-0.770276-0.702577c-0.190578-0.160427-0.391396-0.313458-0.587093-0.467058-0.248604-0.190009-0.497209-0.384-0.75264-0.561493-0.24064-0.168391-0.489244-0.323698-0.737849-0.479005-0.228124-0.142791-0.456818-0.286151-0.689493-0.418702a19.317191 19.317191 0 0 0-0.881209-0.459093c-0.213333-0.105813-0.423822-0.213333-0.642276-0.308907a20.16256 20.16256 0 0 0-0.963129-0.391396c-0.218453-0.082489-0.436907-0.165547-0.657635-0.24064a17.948444 17.948444 0 0 0-0.952889-0.283875c-0.256569-0.070542-0.512-0.137671-0.768-0.197974a19.122631 19.122631 0 0 0-0.8704-0.170666 15.787804 15.787804 0 0 0-1.689031-0.213902 18.208427 18.208427 0 0 0-1.083733-0.055183c-0.115484-0.002276-0.225849-0.017636-0.341903-0.017635H19.298418c-9.933369 0-17.985422 8.051484-17.985422 17.985422 0 9.933369 8.052053 17.985422 17.985422 17.985422h101.30944L170.821404 279.04l145.621334 400.088747c-0.069973 0.175218-0.155307 0.343609-0.223574 0.523946L266.763378 814.017422c-0.308338 0.837973-0.529067 1.686756-0.707129 2.537245a17.90976 17.90976 0 0 0-1.62816 7.4496c0 9.933369 8.052053 17.985991 17.985422 17.985991h70.402276c6.611627 42.630827 43.56096 75.369813 88.016213 75.369813 44.454684 0 81.404587-32.739556 88.016213-75.369813h123.508054c6.611058 42.630827 43.562098 75.369813 88.016782 75.369813 44.455253 0 81.404018-32.739556 88.016213-75.369813h49.884729c9.934507 0 17.985422-8.052622 17.985422-17.985991 0-9.933938-8.050916-17.985422-17.985422-17.985423h-51.648853c-9.910613-38.374969-44.823893-66.804053-86.25152-66.804053-41.428764 0-76.341476 28.429084-86.252658 66.804053H527.087502c-9.916871-38.374969-44.828444-66.804053-86.254933-66.804053-41.42592 0-76.338631 28.429084-86.254933 66.804053h-46.536818l36.402631-98.901333h496.825458z m-149.037511 98.901334c8.444587-18.17088 26.820836-30.832071 48.141653-30.832072 21.320249 0 39.697067 12.661191 48.140515 30.832072 3.151076 6.781724 4.960711 14.309262 4.960712 22.269155 0 4.745102-0.685511 9.321813-1.856854 13.702827-6.0672 22.647467-26.710471 39.398969-51.244373 39.398969-24.53504 0-45.177742-16.751502-51.243805-39.398969-1.17248-4.381013-1.857422-8.957724-1.857422-13.702827 0.000569-7.959893 1.808498-15.487431 4.959574-22.269155z m-299.539912 0c8.441173-18.17088 26.820836-30.832071 48.141085-30.832072 21.320249 0 39.699911 12.661191 48.140515 30.832072 3.152213 6.781724 4.960711 14.309262 4.960712 22.269155 0 4.745102-0.684373 9.321813-1.85856 13.702827-6.064924 22.647467-26.707627 39.398969-51.242667 39.398969-24.533902 0-45.177742-16.751502-51.242098-39.398969-1.174187-4.381013-1.859129-8.957724-1.859129-13.702827 0-7.959893 1.809067-15.487431 4.960142-22.269155z m-25.859413-134.872747h-15.012409l-11.635484-31.96416-28.302791-77.761422h145.405724v109.725582H366.832071z m516.791182-145.696427h-164.651235V411.541049h206.110151l-41.458916 113.908053z m-200.62208 0H493.257956V411.541049h189.743217v113.908053z m-225.714062 0H298.788409l-41.458347-113.908053h199.957049v113.908053z m35.970845 145.696427V561.419947h189.743217v109.725582H493.257956z m348.970097-31.963591l-11.633209 31.96416h-111.622257V561.419947h151.558826l-28.30336 77.761991z m95.944818-263.612302h-219.200284V263.36256h260.041386l-40.841102 112.207076zM515.254044 263.36256h167.747129v112.207076H493.257956V263.36256h21.996088z m-311.856355 0h253.889422v112.207076H244.23936l-39.608889-108.824463-0.002844-0.002275-0.022756-0.062578-1.207182-3.31776z"  /></svg>